<svg width="107" height="101" viewBox="0 0 107 101" fill="none" xmlns="http://www.w3.org/2000/svg">
<path d="M14.08 73C13.0987 73 12.3307 72.8293 11.776 72.488C11.264 72.104 10.9013 71.464 10.688 70.568L1.088 31.592L0.96 30.824C0.96 29.928 1.6 29.48 2.88 29.48H13.76C14.5707 29.48 15.168 29.6293 15.552 29.928C15.936 30.184 16.1707 30.6107 16.256 31.208L18.752 46.44L22.592 34.792C22.848 34.024 23.168 33.512 23.552 33.256C23.9787 32.9573 24.6187 32.808 25.472 32.808H30.464C31.3173 32.808 31.936 32.9573 32.32 33.256C32.7467 33.512 33.088 34.024 33.344 34.792L37.184 46.44L39.68 31.208C39.7653 30.6107 40 30.184 40.384 29.928C40.768 29.6293 41.3653 29.48 42.176 29.48H53.12C54.4 29.48 55.04 29.928 55.04 30.824L54.912 31.592L45.248 70.568C45.0347 71.464 44.6507 72.104 44.096 72.488C43.584 72.8293 42.8373 73 41.856 73H34.88C33.9413 73 33.1947 72.8293 32.64 72.488C32.128 72.104 31.744 71.464 31.488 70.568L27.968 58.152L24.448 70.568C24.192 71.464 23.7867 72.104 23.232 72.488C22.72 72.8293 21.9947 73 21.056 73H14.08Z" fill="#7F22FE"/>
<path d="M78.912 73.96C74.7307 73.96 71.0613 73.2987 67.904 71.976C64.7467 70.6107 62.2933 68.6693 60.544 66.152C58.7947 63.592 57.92 60.5627 57.92 57.064V33.128C57.92 31.8907 58.1973 30.9733 58.752 30.376C59.3493 29.7787 60.352 29.48 61.76 29.48H69.376C70.8267 29.48 71.8293 29.7787 72.384 30.376C72.9813 30.9307 73.28 31.848 73.28 33.128V57.256C73.28 59.2613 73.7707 60.7547 74.752 61.736C75.776 62.7173 77.1627 63.208 78.912 63.208C80.6613 63.208 82.0267 62.7173 83.008 61.736C84.032 60.7547 84.544 59.2613 84.544 57.256V33.128C84.544 31.8907 84.8213 30.9733 85.376 30.376C85.9733 29.7787 86.976 29.48 88.384 29.48H96C97.4507 29.48 98.4533 29.7787 99.008 30.376C99.6053 30.9307 99.904 31.848 99.904 33.128V57.064C99.904 60.5627 99.0293 63.592 97.28 66.152C95.5307 68.6693 93.0773 70.6107 89.92 71.976C86.7627 73.2987 83.0933 73.96 78.912 73.96Z" fill="#FF0DB2"/>
<path d="M5 93.5714C5.22096 93.5714 5.33837 93.569 5.56649 93.5213C8.35023 92.9397 11.0467 92.2567 13.8604 91.7103C26.1409 89.326 38.8915 87.6679 51.6843 86.4943C52.1862 86.4483 60.0199 85.4689 60.0945 86.2189C60.1546 86.8229 59.6953 87.5372 59.4118 88.0967C58.5945 89.7097 57.6568 91.2993 56.8844 92.9205C56.7545 93.1931 55.648 96.0093 55.6788 96C59.2095 94.926 62.4571 93.2302 65.7448 91.9357C77.507 87.3045 89.2228 82.6706 102 79" stroke="#FA51DB" stroke-width="10" stroke-linecap="round"/>
</svg>
